<?xml version="1.0" encoding="utf-8"?>
<!-- Generator: Adobe Illustrator 23.0.3, SVG Export Plug-In . SVG Version: 6.00 Build 0)  -->
<svg version="1.1" id="Layer_1" xmlns="http://www.w3.org/2000/svg" xmlns:xlink="http://www.w3.org/1999/xlink" x="0px" y="0px"
	 viewBox="0 0 32 32" style="enable-background:new 0 0 32 32;" xml:space="preserve">
<style type="text/css">
	.st0{fill:#FFFFFF;}
	.st1{fill:#138CD8;}
	.st2{font-family:'Arial-Black';}
	.st3{font-size:7.0681px;}
	.st4{fill:#0A8ED3;}
	.st5{font-size:9.0874px;}
	.st6{fill:#991632;}
</style>
<path class="st0" d="M7.65,13.93c-0.16,0.07-0.21,0.18-0.28,0.28c-0.09,0.11-0.2,0.15-0.29,0.03c-0.27-0.33-0.59-0.36-0.98-0.25
	c-0.31,0.09-0.47-0.02-0.57-0.33c-0.16-0.49-0.24-0.99-0.25-1.5c0-0.18,0-0.37-0.04-0.55c-0.04-0.17-0.04-0.34-0.3-0.36
	c-0.14-0.01-0.17-0.17-0.22-0.28c-0.17-0.34-0.13-0.47,0.12-0.75C5.06,9.96,5.3,9.7,5.54,9.44C5.75,9.2,6.01,9.12,6.31,9.18
	c0.15,0.03,0.23-0.01,0.33-0.11c0.81-0.78,1.53-1.64,2.25-2.5c0.03-0.04,0.07-0.08,0.1-0.12c0.07-0.09,0.15-0.14,0.27-0.09
	c0.13,0.06,0.13,0.17,0.1,0.28C9.23,7,9.11,7.34,8.93,7.67c-0.37,0.65-0.85,1.2-1.48,1.62C7.3,9.39,7.17,9.5,7.03,9.61
	C6.97,9.65,6.88,9.7,6.89,9.75c0.08,0.28-0.2,0.39-0.28,0.6c-0.04,0.11-0.04,0.19,0,0.3c0.19,0.49,0.61,0.83,0.91,1.25
	c0.04,0.05,0.08,0.05,0.14,0.02c0.2-0.1,0.42-0.13,0.64-0.15c0.22-0.02,0.24-0.08,0.14-0.27c-0.11-0.21-0.21-0.42-0.27-0.65
	c-0.03-0.09-0.03-0.18,0.08-0.22c0.11-0.04,0.1-0.15,0.13-0.24c0.16-0.62,0.75-0.94,1.34-0.73c0.33,0.12,0.5,0.38,0.57,0.71
	c0.04,0.17,0.03,0.36,0.2,0.48c0.03,0.02,0.04,0.05,0.02,0.08c-0.16,0.16-0.06,0.34-0.06,0.52c0,0.03,0.02,0.07,0.01,0.08
	c-0.3,0.35,0.02,0.61,0.16,0.87c0.22,0.4,0.36,0.8,0.36,1.25c0,0.37-0.05,0.73-0.02,1.1c0.01,0.08-0.01,0.16-0.04,0.24
	c-0.14,0.41-0.13,0.81,0.02,1.21c0.03,0.08,0.04,0.18,0.01,0.26c-0.09,0.18-0.04,0.34,0.02,0.51c0.16,0.42,0.32,0.81,0.29,1.3
	c-0.03,0.53,0.21,1.05,0.32,1.58c0.02,0.09,0.05,0.17,0.05,0.26c-0.01,0.36,0.15,0.66,0.37,0.9c0.14,0.15,0.32,0.3,0.52,0.37
	c0.31,0.11,0.53,0.31,0.73,0.55c0.12,0.15,0.23,0.31,0.35,0.46c0.1,0.12,0.2,0.23,0.38,0.24c0.04,0,0.1,0.04,0.13,0.08
	c0.14,0.17,0.32,0.31,0.48,0.46c0.15,0.14,0.25,0.27,0.12,0.48c-0.03,0.05-0.06,0.12,0.01,0.18c0.29,0.28,0.19,0.64,0.19,0.97
	c0,0.12-0.14,0.18-0.25,0.23c-0.14,0.06-0.29,0.06-0.44,0.07c-0.3,0.03-0.36-0.05-0.4-0.34c-0.03-0.24-0.09-0.47-0.35-0.61
	c-0.8-0.45-1.6-0.89-2.38-1.37C10.61,22.47,10.35,22,10,21.6c-0.1-0.12-0.11-0.28-0.03-0.42c0.07-0.11,0.05-0.2-0.02-0.3
	c-0.33-0.47-0.62-0.97-0.91-1.47c-0.15-0.25-0.19-0.26-0.42-0.08c-0.3,0.23-0.51,0.55-0.78,0.81c-0.28,0.27-0.58,0.51-0.94,0.66
	c-0.1,0.04-0.12,0.12-0.16,0.21c-0.16,0.36-0.11,0.73-0.1,1.1c0,0.25-0.07,0.48-0.13,0.71c-0.13,0.45-0.08,0.92-0.1,1.39
	c-0.01,0.24-0.01,0.48-0.21,0.65c-0.05,0.04-0.06,0.1-0.03,0.16c0.09,0.18-0.02,0.24-0.17,0.28c-0.32,0.09-0.64,0.11-0.97,0.09
	c-0.33-0.01-0.48-0.2-0.31-0.49c0.13-0.24,0.13-0.46,0.12-0.71c-0.03-1.05-0.03-2.1-0.04-3.14c0-0.2,0-0.4-0.01-0.6
	c-0.01-0.17,0.01-0.35,0.1-0.49c0.16-0.27,0.24-0.57,0.33-0.86c0.18-0.53,0.33-0.63,0.88-0.57c0.06,0.01,0.12,0.03,0.17-0.02
	c0.19-0.24,0.45-0.41,0.57-0.69c0.1-0.22,0.3-0.36,0.45-0.54c0.07-0.08,0.16-0.16,0.22-0.25c0.04-0.07,0.06-0.12,0.01-0.2
	c-0.12-0.18-0.09-0.32,0.11-0.44c0.1-0.06,0.14-0.14,0.17-0.24c0.08-0.34,0.14-0.66,0.03-1.02C7.7,14.75,7.66,14.35,7.65,13.93z
	 M6.01,10.97c-0.04,0-0.06,0.02-0.06,0.05c0,0.25-0.03,0.49-0.01,0.74c0.01,0.25,0.14,0.49,0.21,0.74c0.12,0.46,0.11,0.45,0.51,0.2
	c0.15-0.1,0.17-0.18,0.05-0.31c-0.26-0.27-0.37-0.61-0.48-0.96c-0.04-0.12-0.08-0.24-0.12-0.35C6.1,11.02,6.07,10.98,6.01,10.97z"/>
<g>
	<text transform="matrix(1.1014 0 0 1 15.397 25.1279)" class="st1 st2 st3">I</text>
</g>
<text transform="matrix(0.9576 0 0 1 18.9111 25.1201)" class="st4 st2 st5">PL</text>
<path class="st1" d="M6.24,7.2c0,0-12.55,12.34,6.66,11.86C12.9,19.05-10.07,22.59,6.24,7.2z"/>
<circle class="st6" cx="16.65" cy="17.49" r="1.65"/>
</svg>
