<?xml version="1.0" encoding="utf-8"?>
<!-- Generator: Adobe Illustrator 23.0.3, SVG Export Plug-In . SVG Version: 6.00 Build 0)  -->
<svg version="1.1" id="Layer_1" xmlns="http://www.w3.org/2000/svg" xmlns:xlink="http://www.w3.org/1999/xlink" x="0px" y="0px"
	 viewBox="0 0 200 200" style="enable-background:new 0 0 200 200;" xml:space="preserve">
<style type="text/css">
	.st0{fill:#FFFFFF;}
	.st1{fill:url(#SVGID_1_);}
	.st2{fill:url(#SVGID_2_);}
	.st3{fill:url(#SVGID_3_);}
	.st4{fill:url(#SVGID_4_);}
	.st5{fill:url(#SVGID_5_);}
	.st6{fill:url(#SVGID_6_);}
	.st7{fill:url(#SVGID_7_);}
	.st8{fill:url(#SVGID_8_);}
	.st9{fill:url(#SVGID_9_);}
	.st10{fill:url(#SVGID_10_);}
	.st11{fill:url(#SVGID_11_);}
	.st12{fill:url(#SVGID_12_);}
	.st13{fill:url(#SVGID_13_);}
	.st14{fill:url(#SVGID_14_);}
	.st15{fill:url(#SVGID_15_);}
	.st16{fill:url(#SVGID_16_);}
	.st17{fill:url(#SVGID_17_);}
	.st18{fill:url(#SVGID_18_);}
	.st19{fill:url(#SVGID_19_);}
</style>
<g>
	<path class="st0" d="M58.81,120.66c0.41-0.09,0.68-0.16,0.96-0.2c1.32-0.2,1.47-0.05,1.49,1.27c0.03,2.67,0.1,5.34,0.11,8
		c0.05,9.61,0.08,19.22,0.13,28.82c0,0.38,0.02,0.81,0.19,1.13c0.14,0.26,0.54,0.57,0.79,0.54c0.32-0.04,0.69-0.33,0.87-0.62
		c0.16-0.27,0.12-0.69,0.11-1.04c-0.06-4.02-0.15-8.03-0.19-12.05c-0.09-8.36-0.13-16.72-0.25-25.08c-0.02-1.27,0.81-0.97,1.48-1.07
		c0.83-0.12,0.99,0.29,1,1.05c0.03,6.01,0.11,12.02,0.16,18.03c0.05,6.33,0.08,12.67,0.12,19c0,0.42,0.01,0.89,0.18,1.25
		c0.12,0.26,0.54,0.53,0.8,0.51c0.27-0.02,0.59-0.36,0.72-0.64c0.13-0.26,0.05-0.63,0.05-0.95c-0.05-7.12-0.11-14.23-0.15-21.35
		c-0.03-5.23-0.06-10.46-0.09-15.69c-0.01-1.16-0.83-2.2-1.79-2.21c-2.21-0.01-4.41,0-6.62,0.05c-1.16,0.03-1.91,0.87-1.9,2.07
		c0.03,2.92,0.1,5.83,0.13,8.75c0.09,9.43,0.17,18.86,0.26,28.28c0.01,0.66-0.14,1.51,0.86,1.51c0.97,0,0.87-0.85,0.9-1.51
		c0.01-0.21,0-0.43,0-0.64c-0.05-4.66-0.11-9.32-0.16-13.98c-0.07-6.72-0.13-13.45-0.19-20.17
		C58.8,122.71,58.81,121.68,58.81,120.66z"/>
	<path class="st0" d="M49.49,126.58c1.77,1.07,1.75,2.92,1.46,4.71c-1.23,7.59-2.79,15.12-5.03,22.48
		c-0.17,0.57-0.94,0.97-1.66,1.67c0,1.66,0.07,3.73-0.02,5.79c-0.1,2.2-0.99,2.87-3.12,2.53c-0.49-0.08-0.98-0.18-1.48-0.25
		c-2.39-0.34-2.73-0.97-2.06-3.37c0.5-1.79,0.88-3.62,1.22-5.45c0.13-0.68,0.09-1.36-0.82-1.73c-0.32-0.13-0.55-1-0.49-1.49
		c0.31-2.47,0.93-4.92,1.08-7.4c0.17-2.8-0.33-5.66,0.01-8.42c0.25-2.02-1.05-4.34,0.92-6.11c0.15-0.13,0.15-0.47,0.17-0.71
		c0.28-3.65,0.56-7.3,0.82-10.96c0.01-0.11-0.07-0.23-0.17-0.52c-2.42,1.24-3.56,4.38-6.72,4.4c-0.12,3.99-0.23,7.96-0.35,11.93
		c-0.03,1,0.03,2.02-0.17,2.99c-0.6,2.89,0.71,5.35,1.62,7.92c0.85,2.41,0.82,2.42-1.18,3.89c1.25,1.87,0.73,3.67-0.25,5.49
		c-0.24,0.44-0.25,1.12-0.12,1.63c0.85,3.19-2.24,6.45-5.41,5.59c-0.42-0.11-0.91-0.8-0.96-1.26c-0.13-1.36-0.04-2.73-0.06-4.1
		c-0.01-0.65-0.04-1.3-0.08-1.95c-0.08-1.39-0.19-2.79-0.25-4.18c-0.03-0.59,0.07-1.12-0.81-1.26c-0.35-0.06-0.83-0.71-0.88-1.13
		c-0.48-4.22-0.98-8.43-1.27-12.67c-0.41-6.02-0.7-12.05-0.93-18.09c-0.09-2.36,0.13-4.74,0.22-7.11c0.05-1.27,0.75-1.9,2-1.88
		c1.12,0.02,2.23,0.1,3.5,0.16c0.25-0.61,0.54-1.33,0.84-2.05c0.47-1.15,1.15-2.07,2.31-2.66c0.55-0.28,0.97-0.88,1.38-1.39
		c1.72-2.14,3.36-4.34,5.15-6.43c1.03-1.2,2.25-2.25,4.11-1.84c0.23,0.05,0.71-0.45,0.88-0.8c2.19-4.62,4.95-8.88,8.45-12.6
		c0.86-0.92,1.48-1.75,1.23-3.16c-1.36,0.33-2.8,0.43-3.62-0.95c-0.67-1.12-1.17-2.37-1.54-3.63c-0.23-0.78-0.42-1.08-1.29-1.04
		c-3.06,0.13-3.82-0.56-4.19-3.64c-0.11-0.9-0.07-1.82-0.12-2.73c-0.1-1.74-1.27-2.94-2.34-4.05c-0.72-0.75-0.84-1.4-0.53-2.2
		c0.34-0.87,0.03-1.47-0.46-2.16c-5.95-8.44-11.88-16.89-17.8-25.36c-0.88-1.26-0.03-3.91,1.44-4.39c0.35-0.12,1,0.12,1.26,0.41
		c2.68,3.02,5.44,5.98,7.9,9.17c3.67,4.75,7.09,9.68,9.71,15.11c0.31,0.65,0.48,1.41,0.56,2.13c0.16,1.51,0.78,2.08,2.28,1.93
		c0.08-0.01,0.17-0.01,0.25-0.02c4.93-0.18,4.79,0.44,6.41,4.41c0.29,0.7,0.65,1.51,1.22,1.93c2,1.48,4.12,2.8,6.19,4.19
		c1.47,0.99,2.91,2.05,4.43,2.97c0.48,0.29,1.15,0.25,1.74,0.37c0.07-0.57,0.15-1.15,0.25-1.93c0.63,0.33,1.32,0.69,2.09,1.1
		c0.85-2.07,1.68-4.08,2.54-6.17c-0.47-0.27-0.85-0.49-1.27-0.73c0.07-0.1,0.15-0.27,0.2-0.27c1.56,0.17,2.41-0.93,3.45-1.8
		c2.3-1.93,5.28-1.86,7.42,0.04c2.43,2.16,2.88,4.91,1.24,7.62c-0.35,0.57-0.74,1.11-1.07,1.69c-0.3,0.52-0.87,0.92-0.28,1.71
		c0.36,0.48-0.83,1.65-1.72,1.77c-0.8,0.11-2.82,1.87-2.87,2.62c-0.02,0.28,0.29,0.63,0.52,0.87c0.93,1,2.02,1.89,2.8,2.99
		c1.62,2.26,1.14,4.5-0.82,6.45c-4.25,4.23-8.14,8.76-10.88,14.18c-0.4,0.8-1.49,1.44-2.39,1.74c-0.85,0.28-1.39,0.67-1.97,1.33
		c-1.2,1.38-1.68,2.87-1.72,4.71c-0.06,2.31-1.35,4.22-2.53,6.16c-1.5,2.48-2.84,5.06-4.28,7.59
		C51.72,122.79,50.62,124.64,49.49,126.58z"/>
	<ellipse class="st0" cx="10.44" cy="41.85" rx="6.39" ry="6.38"/>
	<g>
		<g>
			<linearGradient id="SVGID_1_" gradientUnits="userSpaceOnUse" x1="79.3247" y1="127.3086" x2="197.0068" y2="127.3086">
				<stop  offset="0" style="stop-color:#FFFFFF"/>
				<stop  offset="0.1453" style="stop-color:#D7D7D7"/>
				<stop  offset="0.5029" style="stop-color:#E7E188"/>
				<stop  offset="0.986" style="stop-color:#FCEE21"/>
			</linearGradient>
			<path class="st1" d="M79.56,91.67h5.23v18.7h-5.23V91.67z"/>
			<linearGradient id="SVGID_2_" gradientUnits="userSpaceOnUse" x1="79.3247" y1="127.3086" x2="197.0068" y2="127.3086">
				<stop  offset="0" style="stop-color:#FFFFFF"/>
				<stop  offset="0.1453" style="stop-color:#D7D7D7"/>
				<stop  offset="0.5029" style="stop-color:#E7E188"/>
				<stop  offset="0.986" style="stop-color:#FCEE21"/>
			</linearGradient>
			<path class="st2" d="M88.57,91.67h4.88l6.36,10.35V91.67h4.92v18.7h-4.92l-6.33-10.27v10.27h-4.91V91.67z"/>
			<linearGradient id="SVGID_3_" gradientUnits="userSpaceOnUse" x1="79.3247" y1="127.3086" x2="197.0068" y2="127.3086">
				<stop  offset="0" style="stop-color:#FFFFFF"/>
				<stop  offset="0.1453" style="stop-color:#D7D7D7"/>
				<stop  offset="0.5029" style="stop-color:#E7E188"/>
				<stop  offset="0.986" style="stop-color:#FCEE21"/>
			</linearGradient>
			<path class="st3" d="M108.27,91.67h7.76c1.53,0,2.76,0.23,3.71,0.69s1.72,1.12,2.33,1.98c0.62,0.86,1.06,1.86,1.34,3
				c0.28,1.14,0.42,2.35,0.42,3.62c0,2-0.21,3.55-0.62,4.65s-0.98,2.02-1.71,2.77c-0.73,0.75-1.51,1.24-2.35,1.49
				c-1.14,0.34-2.18,0.51-3.11,0.51h-7.76V91.67z M113.49,95.9v10.22h1.28c1.09,0,1.87-0.13,2.33-0.4s0.82-0.74,1.08-1.4
				c0.26-0.67,0.39-1.75,0.39-3.25c0-1.98-0.29-3.34-0.88-4.07s-1.55-1.1-2.9-1.1H113.49z"/>
			<linearGradient id="SVGID_4_" gradientUnits="userSpaceOnUse" x1="79.3247" y1="127.3086" x2="197.0068" y2="127.3086">
				<stop  offset="0" style="stop-color:#FFFFFF"/>
				<stop  offset="0.1453" style="stop-color:#D7D7D7"/>
				<stop  offset="0.5029" style="stop-color:#E7E188"/>
				<stop  offset="0.986" style="stop-color:#FCEE21"/>
			</linearGradient>
			<path class="st4" d="M126.77,91.67H132v18.7h-5.23V91.67z"/>
			<linearGradient id="SVGID_5_" gradientUnits="userSpaceOnUse" x1="79.3247" y1="127.3086" x2="197.0068" y2="127.3086">
				<stop  offset="0" style="stop-color:#FFFFFF"/>
				<stop  offset="0.1453" style="stop-color:#D7D7D7"/>
				<stop  offset="0.5029" style="stop-color:#E7E188"/>
				<stop  offset="0.986" style="stop-color:#FCEE21"/>
			</linearGradient>
			<path class="st5" d="M146.13,107.28h-5.93l-0.82,3.09h-5.33l6.35-18.7h5.7l6.35,18.7h-5.47L146.13,107.28z M145.05,103.24
				l-1.87-6.72l-1.85,6.72H145.05z"/>
			<linearGradient id="SVGID_6_" gradientUnits="userSpaceOnUse" x1="79.3247" y1="127.3086" x2="197.0068" y2="127.3086">
				<stop  offset="0" style="stop-color:#FFFFFF"/>
				<stop  offset="0.1453" style="stop-color:#D7D7D7"/>
				<stop  offset="0.5029" style="stop-color:#E7E188"/>
				<stop  offset="0.986" style="stop-color:#FCEE21"/>
			</linearGradient>
			<path class="st6" d="M154.14,91.67h4.88l6.36,10.35V91.67h4.92v18.7h-4.92l-6.33-10.27v10.27h-4.91V91.67z"/>
			<linearGradient id="SVGID_7_" gradientUnits="userSpaceOnUse" x1="79.3247" y1="127.3086" x2="197.0068" y2="127.3086">
				<stop  offset="0" style="stop-color:#FFFFFF"/>
				<stop  offset="0.1453" style="stop-color:#D7D7D7"/>
				<stop  offset="0.5029" style="stop-color:#E7E188"/>
				<stop  offset="0.986" style="stop-color:#FCEE21"/>
			</linearGradient>
			<path class="st7" d="M79.32,117.8H88c1.89,0,3.31,0.5,4.25,1.49c0.94,1,1.41,2.41,1.41,4.25c0,1.89-0.51,3.36-1.54,4.43
				c-1.03,1.06-2.59,1.59-4.7,1.59h-2.86v6.94h-5.24V117.8z M84.57,125.77h1.28c1.01,0,1.71-0.19,2.12-0.58s0.61-0.88,0.61-1.49
				c0-0.59-0.18-1.08-0.53-1.49s-1.02-0.61-1.99-0.61h-1.49V125.77z"/>
			<linearGradient id="SVGID_8_" gradientUnits="userSpaceOnUse" x1="79.3247" y1="127.3086" x2="197.0068" y2="127.3086">
				<stop  offset="0" style="stop-color:#FFFFFF"/>
				<stop  offset="0.1453" style="stop-color:#D7D7D7"/>
				<stop  offset="0.5029" style="stop-color:#E7E188"/>
				<stop  offset="0.986" style="stop-color:#FCEE21"/>
			</linearGradient>
			<path class="st8" d="M96.46,136.5v-18.7h8.7c1.61,0,2.85,0.15,3.7,0.46c0.85,0.31,1.54,0.87,2.06,1.7
				c0.52,0.83,0.78,1.84,0.78,3.03c0,1.04-0.2,1.93-0.6,2.69c-0.4,0.75-0.95,1.36-1.65,1.83c-0.45,0.3-1.06,0.54-1.83,0.74
				c0.62,0.23,1.08,0.46,1.36,0.69c0.19,0.15,0.47,0.48,0.83,0.98c0.36,0.5,0.61,0.89,0.73,1.16l2.53,5.42h-5.9l-2.79-5.72
				c-0.35-0.74-0.67-1.22-0.95-1.44c-0.38-0.29-0.8-0.43-1.28-0.43h-0.46v7.59H96.46z M101.71,125.38h2.2c0.24,0,0.7-0.08,1.38-0.25
				c0.35-0.08,0.63-0.27,0.85-0.59c0.22-0.31,0.33-0.68,0.33-1.08c0-0.6-0.17-1.07-0.52-1.39s-1-0.49-1.95-0.49h-2.29V125.38z"/>
			<linearGradient id="SVGID_9_" gradientUnits="userSpaceOnUse" x1="79.3247" y1="127.3086" x2="197.0068" y2="127.3086">
				<stop  offset="0" style="stop-color:#FFFFFF"/>
				<stop  offset="0.1453" style="stop-color:#D7D7D7"/>
				<stop  offset="0.5029" style="stop-color:#E7E188"/>
				<stop  offset="0.986" style="stop-color:#FCEE21"/>
			</linearGradient>
			<path class="st9" d="M114.75,117.8h13.99v3.99h-8.76v2.97h8.13v3.82h-8.13v3.69h9.01v4.24h-14.25V117.8z"/>
			<linearGradient id="SVGID_10_" gradientUnits="userSpaceOnUse" x1="79.3247" y1="127.3086" x2="197.0068" y2="127.3086">
				<stop  offset="0" style="stop-color:#FFFFFF"/>
				<stop  offset="0.1453" style="stop-color:#D7D7D7"/>
				<stop  offset="0.5029" style="stop-color:#E7E188"/>
				<stop  offset="0.986" style="stop-color:#FCEE21"/>
			</linearGradient>
			<path class="st10" d="M131.75,117.8h6.87l2.65,11.38l2.63-11.38h6.86v18.7h-4.28v-14.26l-3.29,14.26h-3.87l-3.29-14.26v14.26
				h-4.28V117.8z"/>
			<linearGradient id="SVGID_11_" gradientUnits="userSpaceOnUse" x1="79.3247" y1="127.3086" x2="197.0068" y2="127.3086">
				<stop  offset="0" style="stop-color:#FFFFFF"/>
				<stop  offset="0.1453" style="stop-color:#D7D7D7"/>
				<stop  offset="0.5029" style="stop-color:#E7E188"/>
				<stop  offset="0.986" style="stop-color:#FCEE21"/>
			</linearGradient>
			<path class="st11" d="M154.29,117.8h5.23v18.7h-5.23V117.8z"/>
			<linearGradient id="SVGID_12_" gradientUnits="userSpaceOnUse" x1="79.3247" y1="127.3086" x2="197.0068" y2="127.3086">
				<stop  offset="0" style="stop-color:#FFFFFF"/>
				<stop  offset="0.1453" style="stop-color:#D7D7D7"/>
				<stop  offset="0.5029" style="stop-color:#E7E188"/>
				<stop  offset="0.986" style="stop-color:#FCEE21"/>
			</linearGradient>
			<path class="st12" d="M163.26,117.8h13.99v3.99h-8.76v2.97h8.13v3.82h-8.13v3.69h9.01v4.24h-14.25V117.8z"/>
			<linearGradient id="SVGID_13_" gradientUnits="userSpaceOnUse" x1="79.3247" y1="127.3086" x2="197.0068" y2="127.3086">
				<stop  offset="0" style="stop-color:#FFFFFF"/>
				<stop  offset="0.1453" style="stop-color:#D7D7D7"/>
				<stop  offset="0.5029" style="stop-color:#E7E188"/>
				<stop  offset="0.986" style="stop-color:#FCEE21"/>
			</linearGradient>
			<path class="st13" d="M180.39,136.5v-18.7h8.7c1.61,0,2.85,0.15,3.7,0.46c0.85,0.31,1.54,0.87,2.06,1.7
				c0.52,0.83,0.78,1.84,0.78,3.03c0,1.04-0.2,1.93-0.6,2.69c-0.4,0.75-0.95,1.36-1.65,1.83c-0.45,0.3-1.06,0.54-1.83,0.74
				c0.62,0.23,1.08,0.46,1.36,0.69c0.19,0.15,0.47,0.48,0.83,0.98c0.36,0.5,0.61,0.89,0.73,1.16l2.53,5.42h-5.9l-2.79-5.72
				c-0.35-0.74-0.67-1.22-0.95-1.44c-0.38-0.29-0.8-0.43-1.28-0.43h-0.46v7.59H180.39z M185.63,125.38h2.2
				c0.24,0,0.7-0.08,1.38-0.25c0.35-0.08,0.63-0.27,0.85-0.59c0.22-0.31,0.33-0.68,0.33-1.08c0-0.6-0.17-1.07-0.52-1.39
				s-1-0.49-1.95-0.49h-2.29V125.38z"/>
			<linearGradient id="SVGID_14_" gradientUnits="userSpaceOnUse" x1="79.3247" y1="127.3086" x2="197.0068" y2="127.3086">
				<stop  offset="0" style="stop-color:#FFFFFF"/>
				<stop  offset="0.1453" style="stop-color:#D7D7D7"/>
				<stop  offset="0.5029" style="stop-color:#E7E188"/>
				<stop  offset="0.986" style="stop-color:#FCEE21"/>
			</linearGradient>
			<path class="st14" d="M79.35,143.93h5.22v14.1h8.15v4.61H79.35V143.93z"/>
			<linearGradient id="SVGID_15_" gradientUnits="userSpaceOnUse" x1="79.3247" y1="127.3086" x2="197.0068" y2="127.3086">
				<stop  offset="0" style="stop-color:#FFFFFF"/>
				<stop  offset="0.1453" style="stop-color:#D7D7D7"/>
				<stop  offset="0.5029" style="stop-color:#E7E188"/>
				<stop  offset="0.986" style="stop-color:#FCEE21"/>
			</linearGradient>
			<path class="st15" d="M95.08,143.93h13.99v3.99h-8.76v2.97h8.13v3.82h-8.13v3.69h9.01v4.24H95.08V143.93z"/>
			<linearGradient id="SVGID_16_" gradientUnits="userSpaceOnUse" x1="79.3247" y1="127.3086" x2="197.0068" y2="127.3086">
				<stop  offset="0" style="stop-color:#FFFFFF"/>
				<stop  offset="0.1453" style="stop-color:#D7D7D7"/>
				<stop  offset="0.5029" style="stop-color:#E7E188"/>
				<stop  offset="0.986" style="stop-color:#FCEE21"/>
			</linearGradient>
			<path class="st16" d="M122.53,159.54h-5.93l-0.82,3.09h-5.33l6.35-18.7h5.7l6.35,18.7h-5.47L122.53,159.54z M121.44,155.5
				l-1.87-6.72l-1.85,6.72H121.44z"/>
			<linearGradient id="SVGID_17_" gradientUnits="userSpaceOnUse" x1="79.3247" y1="127.3086" x2="197.0068" y2="127.3086">
				<stop  offset="0" style="stop-color:#FFFFFF"/>
				<stop  offset="0.1453" style="stop-color:#D7D7D7"/>
				<stop  offset="0.5029" style="stop-color:#E7E188"/>
				<stop  offset="0.986" style="stop-color:#FCEE21"/>
			</linearGradient>
			<path class="st17" d="M139,155.86v-3.89h8.07v7.97c-1.54,1.17-2.91,1.96-4.1,2.38s-2.6,0.63-4.22,0.63c-2,0-3.64-0.38-4.9-1.14
				c-1.26-0.76-2.24-1.88-2.94-3.38c-0.7-1.5-1.04-3.22-1.04-5.16c0-2.04,0.38-3.82,1.14-5.33s1.88-2.66,3.34-3.44
				c1.14-0.6,2.69-0.91,4.62-0.91c1.87,0,3.26,0.19,4.19,0.56c0.93,0.38,1.69,0.96,2.31,1.74c0.61,0.79,1.07,1.78,1.38,2.99l-5.04,1
				c-0.21-0.71-0.56-1.25-1.05-1.62c-0.5-0.37-1.13-0.56-1.9-0.56c-1.15,0-2.06,0.44-2.74,1.32c-0.68,0.88-1.02,2.27-1.02,4.18
				c0,2.02,0.34,3.47,1.03,4.34c0.69,0.87,1.65,1.3,2.88,1.3c0.58,0,1.14-0.09,1.67-0.28c0.53-0.19,1.14-0.51,1.82-0.96v-1.76H139z"
				/>
			<linearGradient id="SVGID_18_" gradientUnits="userSpaceOnUse" x1="79.3247" y1="127.3086" x2="197.0068" y2="127.3086">
				<stop  offset="0" style="stop-color:#FFFFFF"/>
				<stop  offset="0.1453" style="stop-color:#D7D7D7"/>
				<stop  offset="0.5029" style="stop-color:#E7E188"/>
				<stop  offset="0.986" style="stop-color:#FCEE21"/>
			</linearGradient>
			<path class="st18" d="M161.16,143.93h5.21v11.14c0,1.11-0.16,2.15-0.47,3.13c-0.31,0.98-0.8,1.84-1.46,2.58
				c-0.66,0.74-1.36,1.25-2.09,1.55c-1.01,0.42-2.23,0.63-3.65,0.63c-0.82,0-1.72-0.06-2.69-0.19c-0.97-0.13-1.79-0.38-2.44-0.76
				s-1.25-0.92-1.79-1.61c-0.54-0.7-0.91-1.42-1.11-2.15c-0.32-1.19-0.48-2.24-0.48-3.16v-11.14h5.21v11.41
				c0,1.02,0.26,1.82,0.77,2.39c0.51,0.57,1.22,0.86,2.13,0.86c0.9,0,1.6-0.28,2.11-0.85c0.51-0.56,0.77-1.37,0.77-2.4V143.93z"/>
			<linearGradient id="SVGID_19_" gradientUnits="userSpaceOnUse" x1="79.3247" y1="127.3086" x2="197.0068" y2="127.3086">
				<stop  offset="0" style="stop-color:#FFFFFF"/>
				<stop  offset="0.1453" style="stop-color:#D7D7D7"/>
				<stop  offset="0.5029" style="stop-color:#E7E188"/>
				<stop  offset="0.986" style="stop-color:#FCEE21"/>
			</linearGradient>
			<path class="st19" d="M169.82,143.93h13.99v3.99h-8.76v2.97h8.13v3.82h-8.13v3.69h9.01v4.24h-14.25V143.93z"/>
		</g>
	</g>
</g>
</svg>
