<?xml version="1.0" encoding="utf-8"?>
<!-- Generator: Adobe Illustrator 23.0.3, SVG Export Plug-In . SVG Version: 6.00 Build 0)  -->
<svg version="1.1" id="Layer_1" xmlns="http://www.w3.org/2000/svg" xmlns:xlink="http://www.w3.org/1999/xlink" x="0px" y="0px"
	 viewBox="0 0 32 32" style="enable-background:new 0 0 32 32;" xml:space="preserve">
<style type="text/css">
	.st0{fill:#CA9B2F;}
</style>
<path class="st0" d="M3.51,3.77c1.77,0,3.48,0,5.23,0c0-0.27,0-0.51,0-0.77c5.33,0,10.62,0,15.95,0c0,0.25,0,0.49,0,0.76
	c1.75,0,3.46,0,5.24,0c-0.04,0.63-0.07,1.23-0.12,1.82c-0.16,2.07-0.46,4.12-1.28,6.05c-0.26,0.61-0.6,1.18-0.95,1.74
	c-0.69,1.11-1.76,1.72-2.96,2.15c-0.83,0.29-1.64,0.6-2.46,0.92c-0.15,0.06-0.3,0.15-0.41,0.26c-0.79,0.76-1.67,1.4-2.65,1.89
	c-0.65,0.32-1.03,0.85-1.05,1.57c-0.02,1.28-0.04,2.56,0.01,3.84c0.05,1.37,1.18,2.39,2.55,2.41c0.37,0,0.73,0,1.14,0
	c0,0.45,0,0.88,0,1.35c0.48,0,0.91,0,1.37,0c0,0.67,0,1.3,0,1.97c-4.25,0-8.51,0-12.8,0c0-0.64,0-1.28,0-1.96c0.45,0,0.88,0,1.35,0
	c0-0.46,0-0.88,0-1.37c0.37,0,0.71,0,1.04,0c1.58,0,2.68-1.09,2.69-2.67c0.01-1.11,0-2.23,0-3.34c0.01-0.87-0.41-1.44-1.16-1.87
	c-0.8-0.46-1.57-1.02-2.29-1.6c-0.35-0.28-0.7-0.49-1.12-0.65c-0.97-0.36-1.92-0.73-2.88-1.11c-1.16-0.46-1.89-1.39-2.5-2.42
	c-0.71-1.21-1.1-2.54-1.38-3.9C3.91,8.08,3.8,7.3,3.71,6.52C3.62,5.63,3.58,4.73,3.51,3.77z M24.59,5.44
	c-0.26,2.99-0.55,5.96-1.46,8.9c0.57-0.23,1.05-0.44,1.55-0.62c0.67-0.24,1.14-0.71,1.53-1.27c0.2-0.29,0.39-0.6,0.55-0.91
	c0.68-1.34,0.99-2.78,1.2-4.25c0.09-0.6,0.14-1.21,0.21-1.84C26.96,5.44,25.79,5.44,24.59,5.44z M10.32,14.35
	c-0.92-2.96-1.21-5.94-1.47-8.9c-1.21,0-2.38,0-3.58,0c0.05,0.46,0.1,0.9,0.15,1.33c0.2,1.65,0.52,3.28,1.27,4.78
	c0.4,0.8,0.87,1.57,1.71,1.98C8.99,13.83,9.61,14.05,10.32,14.35z"/>
</svg>
